Coordinates
version=1
nRows=12
nColumns=24
inDegrees=yes

Units are S.I. units (second, meters, Newtons, ...)
Angles are in degrees.

endheader
time	pelvis_tilt	pelvis_list	pelvis_rotation	pelvis_tx	pelvis_ty	pelvis_tz	hip_flexion_r	hip_adduction_r	hip_rotation_r	knee_angle_r	ankle_angle_r	subtalar_angle_r	mtp_angle_r	hip_flexion_l	hip_adduction_l	hip_rotation_l	knee_angle_l	ankle_angle_l	subtalar_angle_l	mtp_angle_l	lumbar_extension	lumbar_bending	lumbar_rotation
      0.00000000	     -4.86887992	      0.08189150	      2.46271555	      0.17611578	      0.91936962	      0.01663879	      4.88256302	     -0.69279321	     -7.09341061	     -1.90946424	      3.65046980	     -6.22280011	      0.00000000	      9.24588923	     -4.02204884	     -3.75396263	     -8.66890350	      5.71397637	      1.82476697	      0.00000000	    -10.82988971	      2.92475740	     -3.19039593
      0.01000000	     -4.90088020	      0.06897223	      2.51293307	      0.17642978	      0.91932625	      0.01688603	      4.90804519	     -0.66069321	     -7.10244413	     -1.95014032	      3.65905000	     -6.27561723	      0.00000000	      9.14710367	     -4.04215745	     -3.67213123	     -8.44647819	      5.71918892	      1.84191599	      0.00000000	    -10.74752560	      2.93719375	     -3.16337721
      0.02000000	     -4.95640087	      0.08082096	      2.57770744	      0.17681913	      0.91939614	      0.01720412	      4.93958734	     -0.65327492	     -7.10700898	     -1.95539714	      3.66180953	     -6.34861993	      0.00000000	      9.03244769	     -4.04354747	     -3.66509975	     -8.12426062	      5.51452572	      1.89360049	      0.00000000	    -10.62223169	      2.90758739	     -3.12497266
      0.03000000	     -4.99128003	      0.08677061	      2.62100501	      0.17721234	      0.91937475	      0.01754243	      4.95648748	     -0.63562557	     -7.11478072	     -1.98094128	      3.68916308	     -6.40646500	      0.00000000	      8.88437227	     -4.05170396	     -3.67501802	     -7.79904818	      5.38051487	      1.91109615	      0.00000000	    -10.51007669	      2.89392059	     -3.08338181
      0.04000000	     -5.00443400	      0.07262509	      2.69331711	      0.17746689	      0.91926085	      0.01790075	      4.96938563	     -0.59333812	     -7.15703604	     -2.03378647	      3.74721339	     -6.46340125	      0.00000000	      8.74114616	     -4.08132902	     -3.64364407	     -7.50434177	      5.30275579	      1.93233002	      0.00000000	    -10.44036875	      2.90179245	     -3.08194162
      0.05000000	     -5.02410464	      0.06833517	      2.77353069	      0.17779693	      0.91927475	      0.01827124	      4.97589762	     -0.56325050	     -7.23693051	     -2.06554413	      3.77845544	     -6.48785990	      0.00000000	      8.58653246	     -4.10429023	     -3.62446200	     -7.17532889	      5.17235669	      1.98574684	      0.00000000	    -10.34375307	      2.89829037	     -3.08596304
      0.06000000	     -5.03647502	      0.04891689	      2.86496551	      0.17815644	      0.91928434	      0.01869010	      4.97822224	     -0.51377530	     -7.32043611	     -2.11226824	      3.82053830	     -6.50228020	      0.00000000	      8.41971366	     -4.14549235	     -3.61850295	     -6.83408088	      5.04436191	      2.04392110	      0.00000000	    -10.25160811	      2.91124662	     -3.10491894
      0.07000000	     -5.01130880	      0.04605765	      2.93404525	      0.17855965	      0.91930650	      0.01914414	      4.93220690	     -0.47850144	     -7.41210423	     -2.14537345	      3.86673037	     -6.46911498	      0.00000000	      8.18456856	     -4.17441042	     -3.62552746	     -6.45079342	      4.87796254	      2.08867743	      0.00000000	    -10.20087254	      2.91237117	     -3.13827201
      0.08000000	     -4.96878355	      0.04255832	      3.00733573	      0.17900323	      0.91931893	      0.01960554	      4.85091305	     -0.43538021	     -7.51895573	     -2.15016413	      3.95199848	     -6.43418082	      0.00000000	      7.92687983	     -4.20339573	     -3.62779682	     -6.07187037	      4.77388285	      2.11867495	      0.00000000	    -10.15895769	      2.91653884	     -3.12473240
      0.09000000	     -5.00384735	      0.01178984	      3.08694634	      0.17943585	      0.91935750	      0.02011189	      4.87415579	     -0.36954589	     -7.60752766	     -2.19362874	      3.97263187	     -6.45212752	      0.00000000	      7.78501163	     -4.26686696	     -3.61792181	     -5.74358863	      4.64534209	      2.21499493	      0.00000000	    -10.02179381	      2.95012985	     -3.12574157
      0.10000000	     -4.99047982	     -0.00238395	      3.15730079	      0.17983565	      0.91936034	      0.02068965	      4.84964862	     -0.31284024	     -7.67365632	     -2.24596260	      4.03754619	     -6.46165623	      0.00000000	      7.58172397	     -4.31809141	     -3.63063314	     -5.39430748	      4.49522726	      2.28363027	      0.00000000	     -9.94598727	      2.96011155	     -3.16370554
      0.11000000	     -4.99219311	     -0.04120928	      3.23337555	      0.18017857	      0.91921549	      0.02129837	      4.83293361	     -0.22579760	     -7.69306185	     -2.27230015	      4.12512217	     -6.50239504	      0.00000000	      7.42278494	     -4.39543379	     -3.57819432	     -5.09775843	      4.44903262	      2.33010814	      0.00000000	     -9.85351374	      2.99344481	     -3.17214472
